<?xml version="1.0" encoding="UTF-8"?>
<svg width="1420px" height="320px" viewBox="0 0 1420 320" version="1.1" xmlns="http://www.w3.org/2000/svg" xmlns:xlink="http://www.w3.org/1999/xlink">
    <title>interview_headline1</title>
    <g id="interview_headline1" stroke="none" stroke-width="1" fill="none" fill-rule="evenodd">
        <path d="M488.88,46.4 C527.28,46.4 537.2,58.56 537.2,100.8 L537.2,100.8 L537.2,136.32 L486,136.32 L485.999101,106.226989 C485.965331,100.082093 484.967018,97.92 480.88,97.92 L480.88,97.92 L479.6,97.92 C475.44,97.92 474.48,100.16 474.48,106.56 L474.48,106.56 L474.48,213.44 C474.48,219.84 475.44,222.08 479.6,222.08 L479.6,222.08 L480.88,222.08 C485.04,222.08 486,219.84 486,213.44 L486,174.08 L537.2,174.08 L537.2,219.2 C537.2,261.44 527.28,273.6 488.88,273.6 L488.88,273.6 L468.4,273.6 C430,273.6 420.08,261.44 420.08,219.2 L420.08,219.2 L420.08,100.8 C420.08,58.56 430,46.4 468.4,46.4 L468.4,46.4 Z M617.84,46.4 C656.24,46.4 666.16,58.56 666.16,100.8 L666.16,100.8 L666.16,219.2 C666.16,261.44 656.24,273.6 617.84,273.6 L617.84,273.6 L594.16,273.6 C555.76,273.6 545.84,261.44 545.84,219.2 L545.84,219.2 L545.84,100.8 C545.84,58.56 555.76,46.4 594.16,46.4 L594.16,46.4 Z M1206,46.4 C1244.4,46.4 1254.32,58.56 1254.32,100.8 L1254.32,100.8 L1254.32,123.52 L1203.12,123.52 L1203.12,106.56 C1203.12,100.16 1202.16,97.92 1198,97.92 L1198,97.92 L1196.72,97.92 C1192.56,97.92 1191.6,100.16 1191.6,105.28 L1191.6,105.28 L1191.6,105.92 C1191.6,122.24 1199.92,128 1219.76,143.68 C1241.2,160.64 1254.32,174.4 1254.32,209.28 L1254.32,209.28 L1254.32,219.2 C1254.32,261.44 1244.4,273.6 1206,273.6 L1206,273.6 L1185.84,273.6 C1147.44,273.6 1137.52,261.44 1137.52,219.2 L1137.52,219.2 L1137.52,190.08 L1188.4,190.08 L1188.4009,213.773011 C1188.43467,219.917907 1189.43298,222.08 1193.52,222.08 L1193.52,222.08 L1195.12,222.08 C1198.96,222.08 1199.92,219.84 1199.92,213.44 L1199.92,213.44 L1199.92,209.6 C1199.92,193.28 1191.92,187.52 1171.76,171.84 C1150.64,155.2 1137.52,141.12 1137.52,106.24 L1137.52,106.24 L1137.52,100.8 C1137.52,58.56 1147.44,46.4 1185.84,46.4 L1185.84,46.4 Z M1329.84,46.4 C1368.24,46.4 1378.16,58.56 1378.16,100.8 L1378.16,100.8 L1378.16,123.52 L1326.96,123.52 L1326.96,106.56 C1326.96,100.16 1326,97.92 1321.84,97.92 L1321.84,97.92 L1320.56,97.92 C1316.4,97.92 1315.44,100.16 1315.44,105.28 L1315.44,105.28 L1315.44,105.92 C1315.44,122.24 1323.76,128 1343.6,143.68 C1365.04,160.64 1378.16,174.4 1378.16,209.28 L1378.16,209.28 L1378.16,219.2 C1378.16,261.44 1368.24,273.6 1329.84,273.6 L1329.84,273.6 L1309.68,273.6 C1271.28,273.6 1261.36,261.44 1261.36,219.2 L1261.36,219.2 L1261.36,190.08 L1312.24,190.08 L1312.2409,213.773011 C1312.27467,219.917907 1313.27298,222.08 1317.36,222.08 L1317.36,222.08 L1318.96,222.08 C1322.8,222.08 1323.76,219.84 1323.76,213.44 L1323.76,213.44 L1323.76,209.6 C1323.76,193.28 1315.76,187.52 1295.6,171.84 C1274.48,155.2 1261.36,141.12 1261.36,106.24 L1261.36,106.24 L1261.36,100.8 C1261.36,58.56 1271.28,46.4 1309.68,46.4 L1309.68,46.4 Z M730.16,48 L730.160899,213.773011 C730.194669,219.917907 731.192982,222.08 735.28,222.08 L735.28,222.08 L736.56,222.08 C740.72,222.08 741.68,219.84 741.68,213.44 L741.68,213.44 L741.68,48 L792.88,48 L792.88,219.2 C792.88,261.44 782.96,273.6 744.56,273.6 L744.56,273.6 L724.08,273.6 C685.68,273.6 675.76,261.44 675.76,219.2 L675.76,219.2 L675.76,48 L730.16,48 Z M139.12,48 L139.12,99.2 L115.76,99.2 L115.76,272 L61.36,272 L61.36,99.2 L38,99.2 L38,48 L139.12,48 Z M199.28,48 L199.28,130.24 L210.8,130.24 L210.8,48 L265.2,48 L265.2,272 L210.8,272 L210.8,181.76 L199.28,181.76 L199.28,272 L144.88,272 L144.88,48 L199.28,48 Z M368.56,48 L368.56,99.52 L331.12,99.52 L331.12,130.24 L359.6,130.24 L359.6,181.76 L331.12,181.76 L331.12,220.48 L368.56,220.48 L368.56,272 L276.72,272 L276.72,48 L368.56,48 Z M867.12,48 L873.84,98.56 C876.08,114.24 878.64,130.56 880.56,147.52 C880.24,130.24 879.92,114.56 879.92,98.56 L879.92,98.56 L879.92,48 L926.64,48 L926.64,272 L867.44,272 L856.24,209.92 C853.36,193.6 851.12,177.92 849.2,160.64 C849.52,178.24 849.84,193.6 849.84,209.92 L849.84,209.92 L849.84,272 L803.12,272 L803.12,48 L867.12,48 Z M1033.2,48 L1033.2,99.2 L1009.84,99.2 L1009.84,272 L955.44,272 L955.44,99.2 L932.08,99.2 L932.08,48 L1033.2,48 Z M1130.8,48 L1130.8,99.52 L1093.36,99.52 L1093.36,130.24 L1121.84,130.24 L1121.84,181.76 L1093.36,181.76 L1093.36,220.48 L1130.8,220.48 L1130.8,272 L1038.96,272 L1038.96,48 L1130.8,48 Z M606.64,97.92 L605.36,97.92 C601.2,97.92 600.24,100.16 600.24,106.56 L600.240899,213.773011 C600.274669,219.917907 601.272982,222.08 605.36,222.08 L605.36,222.08 L606.64,222.08 C610.8,222.08 611.76,219.84 611.76,213.44 L611.76,213.44 L611.76,106.56 C611.76,100.16 610.8,97.92 606.64,97.92 L606.64,97.92 Z" id="Combined-Shape" fill="#000000" fill-rule="nonzero"></path>
    </g>
</svg>